<svg width="16" height="16" viewBox="0 0 16 16" fill="none" xmlns="http://www.w3.org/2000/svg">
<path d="M8.0038 1.33329H11.8065C12.407 1.33329 12.874 1.66999 13.1408 2.14137C13.4077 2.68009 13.341 3.28615 13.0074 3.75753L10.2054 7.7306C10.1387 7.86528 10.1387 8.0673 10.2054 8.20198L13.0741 12.2424C13.4077 12.7138 13.4077 13.3198 13.1408 13.8585C12.874 14.3299 12.407 14.6666 11.8065 14.6666H8.0038C7.26994 14.6666 6.53608 14.3299 6.1358 13.6565L3.06693 9.27942C2.53322 8.47134 2.53322 7.3939 3.06693 6.65316L6.1358 2.27605C6.53608 1.73733 7.26994 1.33329 8.0038 1.33329ZM11.8065 13.3198C11.94 13.3198 11.94 13.2525 12.0067 13.1851C12.0067 13.1178 12.0734 13.0505 12.0067 12.9831L9.20466 9.01006C8.80437 8.404 8.80437 7.59592 9.20466 6.98986L12.0067 3.01679C12.0067 2.94945 12.0067 2.88211 12.0067 2.81477C12.0067 2.74743 11.94 2.68009 11.8065 2.68009H8.0038C7.67023 2.68009 7.40337 2.81477 7.20323 3.08413L4.13436 7.46124C3.93422 7.79794 3.93422 8.20198 4.13436 8.53868L7.20323 12.9158C7.40337 13.1851 7.67023 13.3198 8.0038 13.3198H11.8065Z" fill="#8FFF00"/>
</svg>
