<svg width="16" height="16" viewBox="0 0 16 16" fill="none" xmlns="http://www.w3.org/2000/svg">
<path d="M7.99617 14.6666H4.19345C3.59302 14.6666 3.12601 14.3299 2.85916 13.8586C2.5923 13.3198 2.65901 12.7138 2.99259 12.2424L5.79459 8.26934C5.86131 8.13466 5.86131 7.93264 5.79459 7.79796L2.92587 3.75756C2.5923 3.28618 2.5923 2.68011 2.85916 2.14139C3.12601 1.67001 3.59302 1.33331 4.19345 1.33331H7.99617C8.73003 1.33331 9.46389 1.67001 9.86417 2.34341L12.933 6.72052C13.4668 7.5286 13.4668 8.60604 12.933 9.34678L9.86417 13.7239C9.46389 14.2626 8.73003 14.6666 7.99617 14.6666ZM4.19345 2.68011C4.06002 2.68011 4.06002 2.74745 3.9933 2.81479C3.9933 2.88213 3.92659 2.94947 3.9933 3.01681L6.79531 6.98988C7.1956 7.59594 7.1956 8.40402 6.79531 9.01008L3.9933 12.9831C3.9933 13.0505 3.9933 13.1178 3.9933 13.1852C3.9933 13.2525 4.06002 13.3198 4.19345 13.3198H7.99617C8.32974 13.3198 8.5966 13.1852 8.79674 12.9158L11.8656 8.5387C12.0657 8.202 12.0657 7.79796 11.8656 7.46126L8.79674 3.08415C8.5966 2.81479 8.32974 2.68011 7.99617 2.68011H4.19345Z" fill="#8FFF00"/>
</svg>
