<svg width="16" height="16" viewBox="0 0 16 16" fill="none" xmlns="http://www.w3.org/2000/svg">
<path d="M8.0038 1.33335H11.8065C12.407 1.33335 12.874 1.67005 13.1408 2.14143C13.4077 2.68015 13.341 3.28621 13.0074 3.7576L10.2054 7.73066C10.1387 7.86534 10.1387 8.06736 10.2054 8.20204L13.0741 12.2424C13.4077 12.7138 13.4077 13.3199 13.1408 13.8586C12.874 14.33 12.407 14.6667 11.8065 14.6667H8.0038C7.26994 14.6667 6.53608 14.33 6.1358 13.6566L3.06693 9.27948C2.53322 8.4714 2.53322 7.39396 3.06693 6.65322L6.1358 2.27611C6.53608 1.73739 7.26994 1.33335 8.0038 1.33335ZM11.8065 13.3199C11.94 13.3199 11.94 13.2525 12.0067 13.1852C12.0067 13.1179 12.0734 13.0505 12.0067 12.9832L9.20466 9.01012C8.80437 8.40406 8.80437 7.59598 9.20466 6.98992L12.0067 3.01686C12.0067 2.94952 12.0067 2.88217 12.0067 2.81484C12.0067 2.74749 11.94 2.68015 11.8065 2.68015H8.0038C7.67023 2.68015 7.40337 2.81483 7.20323 3.0842L4.13436 7.4613C3.93422 7.798 3.93422 8.20204 4.13436 8.53874L7.20323 12.9158C7.40337 13.1852 7.67023 13.3199 8.0038 13.3199H11.8065Z" fill="#8FFF00"/>
</svg>
