<svg width="16" height="16" viewBox="0 0 16 16" fill="none" xmlns="http://www.w3.org/2000/svg">
<path d="M7.99998 1.33325C4.33331 1.33325 1.33331 4.33325 1.33331 7.99992C1.33331 11.6666 4.33331 14.6666 7.99998 14.6666C11.6666 14.6666 14.6666 11.6666 14.6666 7.99992C14.6666 4.33325 11.6666 1.33325 7.99998 1.33325ZM7.99998 13.3333C5.06665 13.3333 2.66665 10.9333 2.66665 7.99992C2.66665 5.06659 5.06665 2.66659 7.99998 2.66659C10.9333 2.66659 13.3333 5.06659 13.3333 7.99992C13.3333 10.9333 10.9333 13.3333 7.99998 13.3333Z" fill="white"/>
<path d="M8.86662 7.3332H7.13328C6.79995 7.3332 6.53328 7.06654 6.53328 6.7332C6.53328 6.39987 6.79995 6.1332 7.13328 6.1332H9.59995C9.99995 6.1332 10.2666 5.86654 10.2666 5.46654C10.2666 5.06654 9.99995 4.79987 9.59995 4.79987H8.66662V4.19987C8.66662 3.79987 8.39995 3.5332 7.99995 3.5332C7.59995 3.5332 7.33328 3.79987 7.33328 4.19987V4.79987H7.13328C6.06662 4.79987 5.19995 5.66654 5.19995 6.7332C5.19995 7.79987 6.06662 8.66654 7.13328 8.66654H8.79995C9.13328 8.66654 9.39995 8.9332 9.39995 9.26654C9.39995 9.59987 9.13328 9.86654 8.79995 9.86654H6.33328C5.93328 9.86654 5.66662 10.1332 5.66662 10.5332C5.66662 10.9332 5.93328 11.1999 6.33328 11.1999H7.33328V11.7999C7.33328 12.1999 7.59995 12.4665 7.99995 12.4665C8.39995 12.4665 8.66662 12.1999 8.66662 11.7999V11.1999H8.86662C9.93328 11.1999 10.8 10.3332 10.8 9.26654C10.8 8.19987 9.93328 7.3332 8.86662 7.3332Z" fill="white"/>
</svg>
