<svg width="16" height="16" viewBox="0 0 16 16" fill="none" xmlns="http://www.w3.org/2000/svg">
<path d="M7.99999 1.33325C4.33333 1.33325 1.33333 4.33325 1.33333 7.99992C1.33333 11.6666 4.33333 14.6666 7.99999 14.6666C11.6667 14.6666 14.6667 11.6666 14.6667 7.99992C14.6667 4.33325 11.6667 1.33325 7.99999 1.33325ZM7.99999 13.3333C5.06666 13.3333 2.66666 10.9333 2.66666 7.99992C2.66666 5.06659 5.06666 2.66659 7.99999 2.66659C10.9333 2.66659 13.3333 5.06659 13.3333 7.99992C13.3333 10.9333 10.9333 13.3333 7.99999 13.3333Z" fill="white"/>
<path d="M8.86666 7.3332H7.13333C6.8 7.3332 6.53333 7.06654 6.53333 6.7332C6.53333 6.39987 6.8 6.1332 7.13333 6.1332H9.6C10 6.1332 10.2667 5.86654 10.2667 5.46654C10.2667 5.06654 10 4.79987 9.6 4.79987H8.66666V4.19987C8.66666 3.79987 8.4 3.5332 8 3.5332C7.6 3.5332 7.33333 3.79987 7.33333 4.19987V4.79987H7.13333C6.06666 4.79987 5.2 5.66654 5.2 6.7332C5.2 7.79987 6.06666 8.66654 7.13333 8.66654H8.8C9.13333 8.66654 9.4 8.9332 9.4 9.26654C9.4 9.59987 9.13333 9.86654 8.8 9.86654H6.33333C5.93333 9.86654 5.66666 10.1332 5.66666 10.5332C5.66666 10.9332 5.93333 11.1999 6.33333 11.1999H7.33333V11.7999C7.33333 12.1999 7.6 12.4665 8 12.4665C8.4 12.4665 8.66666 12.1999 8.66666 11.7999V11.1999H8.86666C9.93333 11.1999 10.8 10.3332 10.8 9.26654C10.8 8.19987 9.93333 7.3332 8.86666 7.3332Z" fill="white"/>
</svg>
