<svg width="20" height="20" viewBox="0 0 20 20" fill="none" xmlns="http://www.w3.org/2000/svg">
<path d="M16.7647 15.119H15C14.7059 14.0476 13.75 13.3333 12.5735 13.3333C11.1765 13.3333 10 14.4762 10 15.8333C10 17.1905 11.1765 18.3333 12.5735 18.3333C13.75 18.3333 14.7059 17.619 15 16.5476H16.7647C17.2059 16.5476 17.5 16.1905 17.5 15.8333C17.5 15.4048 17.2059 15.119 16.7647 15.119ZM12.5735 16.9048C11.9853 16.9048 11.4706 16.4048 11.4706 15.8333C11.4706 15.2619 11.9853 14.7619 12.5735 14.7619C13.1618 14.7619 13.6765 15.2619 13.6765 15.8333C13.6765 16.4048 13.1618 16.9048 12.5735 16.9048Z" fill="#203800"/>
<path d="M8.45745 15H3.20922C2.78369 15 2.5 15.4167 2.5 15.8333C2.5 16.3333 2.85461 16.6667 3.20922 16.6667H8.45745C8.88298 16.6667 9.16667 16.25 9.16667 15.8333C9.16667 15.3333 8.81206 15 8.45745 15Z" fill="#203800"/>
<path d="M3.20922 4.99999H8.45745C8.88298 4.99999 9.16667 4.58333 9.16667 4.16666C9.16667 3.74999 8.81206 3.33333 8.45745 3.33333H3.20922C2.78369 3.33333 2.5 3.74999 2.5 4.16666C2.5 4.58333 2.85461 4.99999 3.20922 4.99999Z" fill="#203800"/>
<path d="M12.5735 6.66666C13.75 6.66666 14.7059 5.95238 15 4.88095H16.7647C17.2059 4.88095 17.5 4.52381 17.5 4.16666C17.5 3.80952 17.1324 3.45238 16.7647 3.45238H15C14.7059 2.38095 13.75 1.66666 12.5735 1.66666C11.1765 1.66666 10 2.80952 10 4.16666C10 5.52381 11.1765 6.66666 12.5735 6.66666ZM12.5735 3.09524C13.1618 3.09524 13.6765 3.59524 13.6765 4.16666C13.6765 4.73809 13.1618 5.23809 12.5735 5.23809C11.9853 5.23809 11.4706 4.73809 11.4706 4.16666C11.4706 3.59524 11.9853 3.09524 12.5735 3.09524Z" fill="#203800"/>
<path d="M3.23529 10.7143H5C5.29412 11.7143 6.25 12.5 7.42647 12.5C8.82353 12.5 10 11.3571 10 10C10 8.64286 8.82353 7.5 7.42647 7.5C6.25 7.5 5.29412 8.21429 5 9.28571H3.23529C2.79412 9.28571 2.5 9.64286 2.5 10C2.5 10.3571 2.86765 10.7143 3.23529 10.7143ZM7.42647 8.92857C8.01471 8.92857 8.52941 9.42857 8.52941 10C8.52941 10.5714 8.01471 11.0714 7.42647 11.0714C6.83823 11.0714 6.32353 10.5714 6.32353 10C6.32353 9.42857 6.83823 8.92857 7.42647 8.92857Z" fill="#203800"/>
<path d="M16.7831 9.16666H11.5502C11.1201 9.16666 10.8333 9.58333 10.8333 10C10.8333 10.4167 11.1917 10.8333 11.5502 10.8333H16.7831C17.2132 10.8333 17.5 10.4167 17.5 10C17.5 9.58333 17.2132 9.16666 16.7831 9.16666Z" fill="#203800"/>
</svg>
