<svg width="17" height="13" viewBox="0 0 17 13" fill="none" xmlns="http://www.w3.org/2000/svg">
<g clip-path="url(#clip0_0_54)">
<path d="M14.1665 1.0842C13.0839 0.577702 11.9264 0.2096 10.7163 0C10.5677 0.2687 10.394 0.630108 10.2743 0.917606C8.9879 0.724145 7.71331 0.724145 6.45055 0.917606C6.33086 0.630108 6.15328 0.2687 6.00333 0C4.79188 0.2096 3.63304 0.579055 2.55049 1.08688C0.366974 4.38646 -0.22494 7.60407 0.0710173 10.776C1.51924 11.8575 2.92274 12.5145 4.30255 12.9444C4.64323 12.4755 4.94708 11.9771 5.20883 11.4518C4.71031 11.2623 4.23284 11.0286 3.78168 10.7572C3.90137 10.6685 4.01845 10.5758 4.13156 10.4804C6.8833 11.7675 9.87314 11.7675 12.592 10.4804C12.7064 10.5758 12.8235 10.6685 12.9419 10.7572C12.4894 11.0299 12.0106 11.2637 11.5121 11.4531C11.7738 11.9771 12.0764 12.4769 12.4184 12.9457C13.7995 12.5158 15.2043 11.8588 16.6525 10.776C16.9998 7.09893 16.0593 3.91086 14.1665 1.0842ZM5.58372 8.82529C4.75768 8.82529 4.08025 8.05413 4.08025 7.11504C4.08025 6.17596 4.74321 5.40346 5.58372 5.40346C6.42425 5.40346 7.10166 6.1746 7.08719 7.11504C7.0885 8.05413 6.42425 8.82529 5.58372 8.82529ZM11.1398 8.82529C10.3138 8.82529 9.63637 8.05413 9.63637 7.11504C9.63637 6.17596 10.2993 5.40346 11.1398 5.40346C11.9804 5.40346 12.6578 6.1746 12.6433 7.11504C12.6433 8.05413 11.9804 8.82529 11.1398 8.82529Z" fill="#747DA4"/>
</g>
<defs>
<clipPath id="clip0_0_54">
<rect width="16.7236" height="13" fill="white"/>
</clipPath>
</defs>
</svg>
