<svg width="13" height="10" viewBox="0 0 13 10" fill="none" xmlns="http://www.w3.org/2000/svg">
<g clip-path="url(#clip0_0_489)">
<path d="M10.8973 0.834C10.0646 0.444386 9.17418 0.161231 8.24329 0C8.12897 0.206693 7.99541 0.484698 7.90332 0.705851C6.91377 0.557035 5.93331 0.557035 4.96196 0.705851C4.86989 0.484698 4.73329 0.206693 4.61795 0C3.68606 0.161231 2.79464 0.445427 1.96191 0.836063C0.282288 3.3742 -0.173031 5.84929 0.0546287 8.28923C1.16864 9.12115 2.24826 9.62652 3.30965 9.95722C3.57172 9.59654 3.80545 9.21313 4.00679 8.80906C3.62332 8.66335 3.25603 8.48353 2.90898 8.27477C3.00105 8.20656 3.09111 8.13525 3.17812 8.06187C5.29484 9.05192 7.59472 9.05192 9.68616 8.06187C9.77419 8.13525 9.86423 8.20656 9.95529 8.27477C9.60722 8.48455 9.23893 8.66437 8.85545 8.8101C9.0568 9.21313 9.28952 9.59758 9.55259 9.95824C10.615 9.62754 11.6956 9.12219 12.8096 8.28923C13.0768 5.46071 12.3533 3.00835 10.8973 0.834ZM4.29517 6.78869C3.65975 6.78869 3.13865 6.19549 3.13865 5.47311C3.13865 4.75074 3.64862 4.15651 4.29517 4.15651C4.94173 4.15651 5.46281 4.7497 5.45168 5.47311C5.45269 6.19549 4.94173 6.78869 4.29517 6.78869ZM8.56911 6.78869C7.93369 6.78869 7.41259 6.19549 7.41259 5.47311C7.41259 4.75074 7.92254 4.15651 8.56911 4.15651C9.21565 4.15651 9.73675 4.7497 9.72562 5.47311C9.72562 6.19549 9.21565 6.78869 8.56911 6.78869Z" fill="#747DA4"/>
</g>
<defs>
<clipPath id="clip0_0_489">
<rect width="12.8643" height="10" fill="white"/>
</clipPath>
</defs>
</svg>
