<svg width="16" height="16" viewBox="0 0 16 16" fill="none" xmlns="http://www.w3.org/2000/svg">
<path d="M14.5333 6.53333C13.2 5.33333 11 4 8 4C5 4 2.8 5.33333 1.46667 6.53333C0.933333 6.93333 0.666666 7.6 0.666666 8.26667C0.666666 8.93333 0.933333 9.6 1.46667 10C2.8 11.1333 5 12.5333 8 12.5333C11 12.5333 13.2 11.2 14.5333 10C15.0667 9.6 15.3333 8.93333 15.3333 8.26667C15.3333 7.6 15.0667 6.93333 14.5333 6.53333ZM13.6667 9C12.5333 10 10.6 11.2 8 11.2C5.4 11.2 3.46667 10 2.33333 9C2.13333 8.8 2 8.53333 2 8.26667C2 8 2.13333 7.73333 2.33333 7.53333C3.46667 6.53333 5.4 5.33333 8 5.33333C10.6 5.33333 12.5333 6.53333 13.6667 7.53333C13.8667 7.66667 14 7.93333 14 8.26667C14 8.53333 13.8667 8.8 13.6667 9Z" fill="white"/>
<path d="M8.00001 9.80007C8.84684 9.80007 9.53334 9.11357 9.53334 8.26673C9.53334 7.4199 8.84684 6.7334 8.00001 6.7334C7.15317 6.7334 6.46667 7.4199 6.46667 8.26673C6.46667 9.11357 7.15317 9.80007 8.00001 9.80007Z" fill="white"/>
</svg>
