<svg width="20" height="20" viewBox="0 0 20 20" fill="none" xmlns="http://www.w3.org/2000/svg">
<path fill-rule="evenodd" clip-rule="evenodd" d="M15.5801 4.4199C14.1313 2.97114 11.702 2.97114 10.2532 4.4199L8.92259 5.75054C8.59715 6.07598 8.06951 6.07598 7.74408 5.75054C7.41864 5.42511 7.41864 4.89747 7.74408 4.57203L9.07472 3.24139C11.1744 1.14176 14.659 1.14176 16.7586 3.24139C18.8582 5.34102 18.8582 8.82564 16.7586 10.9253L15.428 12.2559C15.1025 12.5814 14.5749 12.5814 14.2495 12.2559C13.924 11.9305 13.924 11.4028 14.2495 11.0774L15.5801 9.74676C17.0289 8.29801 17.0289 5.86866 15.5801 4.4199ZM13.0893 6.91074C13.4147 7.23618 13.4147 7.76382 13.0893 8.08925L8.08926 13.0893C7.76382 13.4147 7.23618 13.4147 6.91074 13.0893C6.58531 12.7638 6.58531 12.2362 6.91074 11.9107L11.9107 6.91074C12.2362 6.5853 12.7638 6.5853 13.0893 6.91074ZM5.75055 7.74408C6.07598 8.06951 6.07598 8.59715 5.75055 8.92259L4.4199 10.2532C2.97114 11.702 2.97114 14.1313 4.4199 15.5801C5.86866 17.0289 8.29801 17.0289 9.74677 15.5801L11.0774 14.2495C11.4028 13.924 11.9305 13.924 12.2559 14.2494C12.5814 14.5749 12.5814 15.1025 12.2559 15.428L10.9253 16.7586C8.82565 18.8582 5.34102 18.8582 3.24139 16.7586C1.14176 14.659 1.14176 11.1743 3.24139 9.07472L4.57203 7.74408C4.89747 7.41864 5.42511 7.41864 5.75055 7.74408Z" fill="#8FFF00"/>
</svg>
