<svg width="24" height="24" viewBox="0 0 24 24" fill="none" xmlns="http://www.w3.org/2000/svg">
<path fill-rule="evenodd" clip-rule="evenodd" d="M11.0594 1.03372C16.3938 0.588837 20.8873 4.60236 20.9997 9.77731L21 9.79903C21 11.6079 20.4334 13.2985 19.4291 14.7503L19.4191 14.7645L14.3434 21.8361C14.3334 21.8501 14.3229 21.8639 14.3122 21.8774C13.1455 23.3369 10.8509 23.4267 9.72985 21.8317L4.65255 14.7578C3.32905 12.8814 2.63357 10.5124 3.196 8.00522C3.88951 4.24587 7.1674 1.47839 11.0289 1.03673C11.039 1.03557 11.0492 1.03456 11.0594 1.03372ZM11.2409 3.02554C8.15027 3.3853 5.66832 5.58548 5.15986 8.38419C5.15726 8.39848 5.15436 8.41272 5.15114 8.42689C4.72738 10.2929 5.22491 12.0977 6.28461 13.6017L11.3649 20.6798C11.6356 21.0668 12.3108 21.1575 12.7361 20.6456L17.789 13.6056C18.571 12.4725 18.9977 11.1813 19 9.80988C18.9074 5.83162 15.4499 2.68282 11.2409 3.02554Z" fill="#747DA4"/>
<path fill-rule="evenodd" clip-rule="evenodd" d="M12 7.8999C10.9506 7.8999 10.1 8.75056 10.1 9.7999C10.1 10.8492 10.9506 11.6999 12 11.6999C13.0493 11.6999 13.9 10.8492 13.9 9.7999C13.9 8.75056 13.0493 7.8999 12 7.8999ZM8.09998 9.7999C8.09998 7.64599 9.84607 5.8999 12 5.8999C14.1539 5.8999 15.9 7.64599 15.9 9.7999C15.9 11.9538 14.1539 13.6999 12 13.6999C9.84607 13.6999 8.09998 11.9538 8.09998 9.7999Z" fill="#747DA4"/>
<path fill-rule="evenodd" clip-rule="evenodd" d="M12 7.8999C10.9506 7.8999 10.1 8.75056 10.1 9.7999C10.1 10.8492 10.9506 11.6999 12 11.6999C13.0493 11.6999 13.9 10.8492 13.9 9.7999C13.9 8.75056 13.0493 7.8999 12 7.8999ZM8.09998 9.7999C8.09998 7.64599 9.84607 5.8999 12 5.8999C14.1539 5.8999 15.9 7.64599 15.9 9.7999C15.9 11.9538 14.1539 13.6999 12 13.6999C9.84607 13.6999 8.09998 11.9538 8.09998 9.7999Z" fill="#747DA4"/>
<path fill-rule="evenodd" clip-rule="evenodd" d="M12 7.8999C10.9506 7.8999 10.1 8.75056 10.1 9.7999C10.1 10.8492 10.9506 11.6999 12 11.6999C13.0493 11.6999 13.9 10.8492 13.9 9.7999C13.9 8.75056 13.0493 7.8999 12 7.8999ZM8.09998 9.7999C8.09998 7.64599 9.84607 5.8999 12 5.8999C14.1539 5.8999 15.9 7.64599 15.9 9.7999C15.9 11.9538 14.1539 13.6999 12 13.6999C9.84607 13.6999 8.09998 11.9538 8.09998 9.7999Z" fill="#747DA4"/>
</svg>
