<svg width="24" height="24" viewBox="0 0 24 24" fill="none" xmlns="http://www.w3.org/2000/svg">
<path d="M19 20H5C2.8 20 1 18.2 1 16V8C1 5.8 2.8 4 5 4H19C21.2 4 23 5.8 23 8V16C23 18.2 21.2 20 19 20Z" fill="#747DA4"/>
<path d="M12 12.6001C11.4 12.6001 10.7 12.4001 10.2 12.1001L5.20001 9.20008C4.70001 9.00008 4.50001 8.30008 4.80001 7.90008C5.00001 7.40008 5.70001 7.20008 6.10001 7.50008L11.1 10.4001C11.6 10.7001 12.3 10.7001 12.8 10.4001L17.8 7.50008C18.3 7.20008 18.9 7.40008 19.2 7.90008C19.5 8.40008 19.3 9.00009 18.8 9.30009L13.8 12.2001C13.3 12.4001 12.6 12.6001 12 12.6001Z" fill="#4B516A"/>
</svg>
