<svg width="20" height="20" viewBox="0 0 20 20" fill="none" xmlns="http://www.w3.org/2000/svg">
<path d="M16.75 11.4167H10.8333V4.75001C10.8333 4.25001 10.5 3.91668 10 3.91668C9.5 3.91668 9.16667 4.25001 9.16667 4.75001V11.4167H3.25C1.91667 11.4167 0.833333 12.5 0.833333 13.9167V16.75C0.833333 18.0833 1.91667 19.1667 3.25 19.1667H16.6667C18 19.1667 19.0833 18.0833 19.0833 16.75V13.9167C19.1667 12.5 18.0833 11.4167 16.75 11.4167ZM17.5 16.75C17.5 17.1667 17.1667 17.5 16.75 17.5H3.25C2.83333 17.5 2.5 17.1667 2.5 16.75V13.9167C2.5 13.5 2.83333 13.1667 3.25 13.1667H16.6667C17.0833 13.1667 17.4167 13.5 17.4167 13.9167V16.75H17.5Z" fill="#8FFF00"/>
<path d="M9.25 14.5H4.66667C4.16667 14.5 3.83333 14.8333 3.83333 15.3333C3.83333 15.8333 4.16667 16.1667 4.66667 16.1667H9.25C9.75 16.1667 10.0833 15.8333 10.0833 15.3333C10.0833 14.8333 9.66667 14.5 9.25 14.5Z" fill="#8FFF00"/>
<path d="M7.33333 7.16668C7.5 7.16668 7.75 7.08334 7.91667 6.91668C8.25 6.58334 8.25 6.08334 8 5.75001C7.75 5.50001 7.58333 5.08334 7.58333 4.75001C7.58333 4.41668 7.75 4.00001 7.91667 3.75001C8.25 3.41668 8.16667 2.91668 7.83333 2.58334C7.5 2.25001 7 2.33334 6.66667 2.66668C6.16667 3.25001 5.83333 4.00001 5.83333 4.75001C5.83333 5.50001 6.08333 6.25001 6.66667 6.83334C6.91667 7.00001 7.08333 7.16668 7.33333 7.16668Z" fill="#8FFF00"/>
<path d="M5.08333 8.66668C5.25 8.66668 5.5 8.58334 5.66667 8.50001C6 8.16668 6.08333 7.66668 5.75 7.33334C5.08333 6.58334 4.75 5.66668 4.75 4.75001C4.75 3.83334 5.08333 2.91668 5.66667 2.16668C6 1.83334 5.91667 1.33334 5.58333 1.00001C5.25 0.666678 4.75 0.750011 4.41667 1.08334C3.58333 2.08334 3.08333 3.33334 3.08333 4.75001C3.08333 6.08334 3.58333 7.41668 4.41667 8.41668C4.58333 8.58334 4.83333 8.66668 5.08333 8.66668Z" fill="#8FFF00"/>
<path d="M12.0833 6.91668C12.25 7.08334 12.4167 7.16668 12.6667 7.16668C12.9167 7.16668 13.0833 7.08334 13.25 6.91668C13.75 6.33335 14.0833 5.58334 14.0833 4.83334C14.0833 4.08334 13.8333 3.33334 13.25 2.75001C12.9167 2.41668 12.4167 2.41668 12.0833 2.66668C11.75 3.00001 11.75 3.50001 12 3.83334C12.25 4.08334 12.3333 4.41668 12.3333 4.83334C12.3333 5.25001 12.1667 5.58334 12 5.83334C11.75 6.08334 11.75 6.58334 12.0833 6.91668Z" fill="#8FFF00"/>
<path d="M14.4167 8.50001C14.5833 8.66668 14.75 8.66668 15 8.66668C15.25 8.66668 15.5 8.58334 15.6667 8.41668C16.5 7.41668 17 6.16668 17 4.75001C17 3.41668 16.5 2.08334 15.6667 1.08334C15.3333 0.750011 14.8333 0.666678 14.5 1.00001C14.1667 1.33334 14.0833 1.83334 14.4167 2.16668C15 2.83334 15.3333 3.75001 15.3333 4.75001C15.3333 5.66668 15 6.58334 14.4167 7.33334C14 7.66668 14 8.16668 14.4167 8.50001Z" fill="#8FFF00"/>
</svg>
