<svg width="20" height="20" viewBox="0 0 20 20" fill="none" xmlns="http://www.w3.org/2000/svg">
<path d="M16.75 11.4167H10.8333V4.75001C10.8333 4.25001 10.5 3.91668 9.99998 3.91668C9.49998 3.91668 9.16665 4.25001 9.16665 4.75001V11.4167H3.24998C1.91665 11.4167 0.833313 12.5 0.833313 13.9167V16.75C0.833313 18.0833 1.91665 19.1667 3.24998 19.1667H16.6666C18 19.1667 19.0833 18.0833 19.0833 16.75V13.9167C19.1666 12.5 18.0833 11.4167 16.75 11.4167ZM17.5 16.75C17.5 17.1667 17.1666 17.5 16.75 17.5H3.24998C2.83331 17.5 2.49998 17.1667 2.49998 16.75V13.9167C2.49998 13.5 2.83331 13.1667 3.24998 13.1667H16.6666C17.0833 13.1667 17.4166 13.5 17.4166 13.9167V16.75H17.5Z" fill="#203800"/>
<path d="M9.24998 14.5H4.66665C4.16665 14.5 3.83331 14.8333 3.83331 15.3333C3.83331 15.8333 4.16665 16.1667 4.66665 16.1667H9.24998C9.74998 16.1667 10.0833 15.8333 10.0833 15.3333C10.0833 14.8333 9.66665 14.5 9.24998 14.5Z" fill="#203800"/>
<path d="M7.33331 7.16668C7.49998 7.16668 7.74998 7.08334 7.91665 6.91668C8.24998 6.58334 8.24998 6.08334 7.99998 5.75001C7.74998 5.50001 7.58331 5.08334 7.58331 4.75001C7.58331 4.41668 7.74998 4.00001 7.91665 3.75001C8.24998 3.41668 8.16665 2.91668 7.83331 2.58334C7.49998 2.25001 6.99998 2.33334 6.66665 2.66668C6.16665 3.25001 5.83331 4.00001 5.83331 4.75001C5.83331 5.50001 6.08331 6.25001 6.66665 6.83334C6.91665 7.00001 7.08331 7.16668 7.33331 7.16668Z" fill="#203800"/>
<path d="M5.08331 8.66668C5.24998 8.66668 5.49998 8.58334 5.66665 8.50001C5.99998 8.16668 6.08331 7.66668 5.74998 7.33334C5.08331 6.58334 4.74998 5.66668 4.74998 4.75001C4.74998 3.83334 5.08331 2.91668 5.66665 2.16668C5.99998 1.83334 5.91665 1.33334 5.58331 1.00001C5.24998 0.666678 4.74998 0.750011 4.41665 1.08334C3.58331 2.08334 3.08331 3.33334 3.08331 4.75001C3.08331 6.08334 3.58331 7.41668 4.41665 8.41668C4.58331 8.58334 4.83331 8.66668 5.08331 8.66668Z" fill="#203800"/>
<path d="M12.0833 6.91668C12.25 7.08334 12.4166 7.16668 12.6666 7.16668C12.9166 7.16668 13.0833 7.08334 13.25 6.91668C13.75 6.33335 14.0833 5.58334 14.0833 4.83334C14.0833 4.08334 13.8333 3.33334 13.25 2.75001C12.9166 2.41668 12.4166 2.41668 12.0833 2.66668C11.75 3.00001 11.75 3.50001 12 3.83334C12.25 4.08334 12.3333 4.41668 12.3333 4.83334C12.3333 5.25001 12.1666 5.58334 12 5.83334C11.75 6.08334 11.75 6.58334 12.0833 6.91668Z" fill="#203800"/>
<path d="M14.4166 8.50001C14.5833 8.66668 14.75 8.66668 15 8.66668C15.25 8.66668 15.5 8.58334 15.6666 8.41668C16.5 7.41668 17 6.16668 17 4.75001C17 3.41668 16.5 2.08334 15.6666 1.08334C15.3333 0.750011 14.8333 0.666678 14.5 1.00001C14.1666 1.33334 14.0833 1.83334 14.4166 2.16668C15 2.83334 15.3333 3.75001 15.3333 4.75001C15.3333 5.66668 15 6.58334 14.4166 7.33334C14 7.66668 14 8.16668 14.4166 8.50001Z" fill="#203800"/>
</svg>
