<svg width="20" height="20" viewBox="0 0 20 20" fill="none" xmlns="http://www.w3.org/2000/svg">
<path d="M13.1667 6.33333C12.8334 6 12.25 6.08333 12 6.41667C11.6667 6.75 11.75 7.33333 12.0834 7.58333C12.8334 8.16667 13.25 9.08333 13.25 10.0833C13.25 11.8333 11.8334 13.3333 10 13.3333C8.16671 13.3333 6.75004 11.8333 6.75004 10C6.75004 9.08333 7.16671 8.16667 7.91671 7.5C8.25004 7.16667 8.33337 6.66667 8.00004 6.33333C7.66671 6 7.16671 5.91667 6.83337 6.25C5.75004 7.25 5.08337 8.58333 5.08337 10C5.08337 12.6667 7.25004 14.9167 10 14.9167C12.6667 14.9167 14.9167 12.75 14.9167 10C14.9167 8.58333 14.25 7.25 13.1667 6.33333Z" fill="#203800"/>
<path d="M10 1.66667C5.41669 1.66667 1.66669 5.41667 1.66669 10C1.66669 14.5833 5.41669 18.3333 10 18.3333C14.5834 18.3333 18.3334 14.5833 18.3334 10C18.3334 5.41667 14.5834 1.66667 10 1.66667ZM10 16.6667C6.33335 16.6667 3.33335 13.6667 3.33335 10C3.33335 6.33333 6.33335 3.33333 10 3.33333C13.6667 3.33333 16.6667 6.33333 16.6667 10C16.6667 13.6667 13.6667 16.6667 10 16.6667Z" fill="#203800"/>
<path d="M10 9.25C10.5 9.25 10.8334 8.91667 10.8334 8.41667V5.41667C10.8334 4.91667 10.5 4.58333 10 4.58333C9.50002 4.58333 9.16669 4.91667 9.16669 5.41667V8.5C9.16669 8.91666 9.50002 9.25 10 9.25Z" fill="#203800"/>
</svg>
