<svg width="20" height="20" viewBox="0 0 20 20" fill="none" xmlns="http://www.w3.org/2000/svg">
<path d="M13.1667 6.33333C12.8333 6 12.25 6.08333 12 6.41667C11.6667 6.75 11.75 7.33333 12.0833 7.58333C12.8333 8.16667 13.25 9.08333 13.25 10.0833C13.25 11.8333 11.8333 13.3333 10 13.3333C8.16667 13.3333 6.75 11.8333 6.75 10C6.75 9.08333 7.16667 8.16667 7.91667 7.5C8.25 7.16667 8.33333 6.66667 8 6.33333C7.66667 6 7.16667 5.91667 6.83333 6.25C5.75 7.25 5.08333 8.58333 5.08333 10C5.08333 12.6667 7.25 14.9167 10 14.9167C12.6667 14.9167 14.9167 12.75 14.9167 10C14.9167 8.58333 14.25 7.25 13.1667 6.33333Z" fill="#8FFF00"/>
<path d="M10 1.66667C5.41667 1.66667 1.66667 5.41667 1.66667 10C1.66667 14.5833 5.41667 18.3333 10 18.3333C14.5833 18.3333 18.3333 14.5833 18.3333 10C18.3333 5.41667 14.5833 1.66667 10 1.66667ZM10 16.6667C6.33333 16.6667 3.33333 13.6667 3.33333 10C3.33333 6.33333 6.33333 3.33333 10 3.33333C13.6667 3.33333 16.6667 6.33333 16.6667 10C16.6667 13.6667 13.6667 16.6667 10 16.6667Z" fill="#8FFF00"/>
<path d="M10 9.25C10.5 9.25 10.8333 8.91667 10.8333 8.41667V5.41667C10.8333 4.91667 10.5 4.58333 10 4.58333C9.5 4.58333 9.16667 4.91667 9.16667 5.41667V8.5C9.16667 8.91666 9.5 9.25 10 9.25Z" fill="#8FFF00"/>
</svg>
