<svg width="114" height="30" viewBox="0 0 114 30" fill="none" xmlns="http://www.w3.org/2000/svg">
<g clip-path="url(#clip0_0_18)">
<g filter="url(#filter0_d_0_18)">
<path d="M9.26578 5.66451C14.3676 5.66451 18.5316 9.79097 18.5316 14.8928C18.5316 19.9946 14.3676 24.1586 9.26578 24.1586C7.65271 24.1586 6.11466 23.7459 4.8017 23.0332V30.0106L0 27.9849V14.9303C0 9.79097 4.16397 5.66451 9.26578 5.66451ZM55.4071 0V5.66451H59.8712V10.4662H55.4071V15.0053C55.4071 17.4812 57.3953 19.4694 59.8712 19.4694V24.2711C54.8444 24.2711 50.7555 20.2572 50.6054 15.2679V2.06323L55.4071 0ZM29.523 5.66451V10.4662C27.0471 10.4662 25.0589 12.4544 25.0589 14.9303V24.2711H20.2572V14.6677L20.2629 14.5183C20.4891 9.59855 24.5464 5.66451 29.523 5.66451ZM39.5015 5.66451C44.6033 5.66451 48.7297 9.79097 48.7673 14.9303C48.7673 20.0321 44.6033 24.1961 39.5015 24.1961C34.3997 24.1961 30.2357 20.0321 30.2357 14.9303C30.2357 9.82848 34.3997 5.66451 39.5015 5.66451ZM70.2999 5.66451C75.4017 5.66451 79.5657 9.79097 79.5657 14.9303C79.5657 20.0321 75.4017 24.1961 70.2999 24.1961C65.1981 24.1961 61.0341 20.0321 61.0341 14.9303C61.0341 9.82848 65.1981 5.66451 70.2999 5.66451ZM104.512 5.66451C109.614 5.66451 113.778 9.79097 113.778 14.9303C113.778 20.0321 109.614 24.1961 104.512 24.1961C99.4102 24.1961 95.2462 20.0321 95.2462 14.9303C95.2462 9.82848 99.4102 5.66451 104.512 5.66451ZM93.3706 5.66451V24.1961H88.5689V5.66451H93.3706ZM83.4295 17.9689C85.1551 17.9689 86.5431 19.3569 86.5431 21.0825C86.5431 22.8081 85.1551 24.1961 83.4295 24.1961C81.7039 24.1961 80.3159 22.8081 80.3159 21.0825C80.3159 19.3569 81.7039 17.9689 83.4295 17.9689ZM39.5015 10.4662C37.0256 10.4662 35.0374 12.4544 35.0374 14.9303C35.0374 17.4062 37.0256 19.3944 39.5015 19.3944C41.9398 19.3944 43.9281 17.3686 43.9656 14.9303C43.9656 12.4544 41.9774 10.4662 39.5015 10.4662ZM70.2999 10.4662C67.824 10.4662 65.8358 12.4544 65.8358 14.9303C65.8358 17.4062 67.824 19.3944 70.2999 19.3944C72.7383 19.3944 74.764 17.3686 74.764 14.9303C74.764 12.4544 72.7758 10.4662 70.2999 10.4662ZM9.26578 10.4662C6.7899 10.4662 4.8017 12.4544 4.8017 14.9303C4.8017 17.4062 6.7899 19.3944 9.26578 19.3944C11.7041 19.3944 13.7299 17.3686 13.7299 14.9303C13.7299 12.4544 11.7417 10.4662 9.26578 10.4662ZM104.512 10.4662C102.036 10.4662 100.048 12.4544 100.048 14.9303C100.048 17.4062 102.036 19.3944 104.512 19.3944C106.95 19.3944 108.976 17.3686 108.976 14.9303C108.976 12.4544 106.988 10.4662 104.512 10.4662Z" fill="white"/>
</g>
</g>
<defs>
<filter id="filter0_d_0_18" x="-8" y="-4" width="129.778" height="46.0107" filterUnits="userSpaceOnUse" color-interpolation-filters="sRGB">
<feFlood flood-opacity="0" result="BackgroundImageFix"/>
<feColorMatrix in="SourceAlpha" type="matrix" values="0 0 0 0 0 0 0 0 0 0 0 0 0 0 0 0 0 0 127 0" result="hardAlpha"/>
<feOffset dy="4"/>
<feGaussianBlur stdDeviation="4"/>
<feComposite in2="hardAlpha" operator="out"/>
<feColorMatrix type="matrix" values="0 0 0 0 0 0 0 0 0 0 0 0 0 0 0 0 0 0 0.15 0"/>
<feBlend mode="normal" in2="BackgroundImageFix" result="effect1_dropShadow_0_18"/>
<feBlend mode="normal" in="SourceGraphic" in2="effect1_dropShadow_0_18" result="shape"/>
</filter>
<clipPath id="clip0_0_18">
<rect width="113.778" height="30" fill="white"/>
</clipPath>
</defs>
</svg>
