<svg width="19" height="20" viewBox="0 0 19 20" fill="none" xmlns="http://www.w3.org/2000/svg">
<path fill-rule="evenodd" clip-rule="evenodd" d="M7.70335 1.92995C8.62798 1.40796 9.75663 1.40796 10.6813 1.92995C10.6882 1.93387 10.6951 1.93789 10.7019 1.94202L15.4616 4.82844C16.4009 5.36395 16.9231 6.33153 16.9231 7.38142V12.6967C16.9231 13.7119 16.427 14.7064 15.5258 15.1793L10.7788 18.058C10.772 18.0621 10.7651 18.0661 10.7582 18.07C9.83355 18.592 8.70491 18.592 7.78027 18.07C7.77334 18.0661 7.76646 18.0621 7.75965 18.058L2.99987 15.1715C2.06064 14.636 1.53846 13.6685 1.53846 12.6186V7.38142C1.53846 6.3325 2.05969 5.36574 2.9973 4.82992L7.67799 1.94492C7.68635 1.93977 7.6948 1.93478 7.70335 1.92995ZM8.46203 3.2901L3.78355 6.17375C3.77519 6.1789 3.76673 6.18389 3.75819 6.18872C3.31983 6.43618 3.07692 6.87211 3.07692 7.38142V12.6186C3.07692 13.1279 3.31983 13.5638 3.75819 13.8113C3.76512 13.8152 3.772 13.8192 3.77881 13.8234L8.53679 16.7087C8.99191 16.9614 9.54656 16.9614 10.0017 16.7087L14.7596 13.8234C14.776 13.8134 14.7928 13.8041 14.8098 13.7954C15.1217 13.637 15.3846 13.2345 15.3846 12.6967V7.38142C15.3846 6.87211 15.1417 6.43618 14.7034 6.18872C14.6964 6.1848 14.6895 6.18078 14.6827 6.17664L9.92476 3.29131C9.47036 3.03902 8.91675 3.03862 8.46203 3.2901ZM9.23076 8.39758C8.33861 8.39758 7.61538 9.13251 7.61538 10.0391C7.61538 10.9457 8.33861 11.6806 9.23076 11.6806C10.1229 11.6806 10.8461 10.9457 10.8461 10.0391C10.8461 9.13251 10.1229 8.39758 9.23076 8.39758ZM6.07692 10.0391C6.07692 8.2691 7.48894 6.83425 9.23076 6.83425C10.9726 6.83425 12.3846 8.2691 12.3846 10.0391C12.3846 11.8091 10.9726 13.2439 9.23076 13.2439C7.48894 13.2439 6.07692 11.8091 6.07692 10.0391Z" fill="#8FFF00"/>
</svg>
