<svg width="12" height="10" viewBox="0 0 12 10" fill="none" xmlns="http://www.w3.org/2000/svg">
<path d="M11.4871 1.20128C11.1139 1.37016 10.7215 1.48775 10.3197 1.55116C10.5075 1.5173 10.784 1.16177 10.894 1.01787C11.0612 0.800798 11.1886 0.552997 11.2698 0.28705C11.2698 0.267299 11.2885 0.239082 11.2698 0.224973C11.2603 0.21954 11.2497 0.216693 11.2389 0.216693C11.2281 0.216693 11.2175 0.21954 11.208 0.224973C10.7717 0.473401 10.3073 0.663007 9.82585 0.78931C9.80907 0.794699 9.79121 0.795183 9.77419 0.790709C9.75716 0.786235 9.74162 0.776972 9.72923 0.763915C9.69175 0.716998 9.65141 0.672698 9.60846 0.631296C9.41209 0.44632 9.18929 0.294925 8.94823 0.182648C8.62283 0.0422911 8.27134 -0.0184944 7.92032 0.00488207C7.57972 0.0274972 7.24719 0.123544 6.9434 0.28705C6.64426 0.459433 6.38134 0.693621 6.17046 0.975541C5.94864 1.26571 5.78849 1.60246 5.70079 1.96313C5.62847 2.3062 5.62027 2.66079 5.67663 3.00715C5.67663 3.06641 5.67663 3.07487 5.62832 3.06641C3.71475 2.77013 2.1447 2.05625 0.861827 0.524072C0.805467 0.456351 0.775944 0.456351 0.730319 0.524072C0.172081 1.41572 0.443148 2.82657 1.14095 3.52352C1.23488 3.61664 1.3315 3.70693 1.43348 3.79158C1.11355 3.7677 0.801427 3.67655 0.515612 3.52352C0.461935 3.48684 0.432413 3.50659 0.429729 3.57431C0.422121 3.6682 0.422121 3.76259 0.429729 3.85648C0.485729 4.30642 0.654387 4.73266 0.918456 5.0916C1.18253 5.45054 1.53253 5.7293 1.93268 5.89938C2.03022 5.94331 2.13187 5.9764 2.23595 5.99814C1.93977 6.05944 1.636 6.06898 1.33687 6.02635C1.27245 6.01225 1.2483 6.04893 1.27245 6.11383C1.66698 7.2425 2.52312 7.58674 3.15114 7.77862C3.23702 7.79273 3.32291 7.79273 3.41952 7.8153C3.41952 7.8153 3.41952 7.8153 3.40342 7.83223C3.21824 8.18776 2.46945 8.42761 2.12591 8.55176C1.49888 8.78856 0.830349 8.87906 0.166713 8.817C0.0620433 8.80007 0.0378888 8.80289 0.0110504 8.817C-0.015788 8.83111 0.0110504 8.86214 0.0405726 8.89036C0.174765 8.98348 0.308956 9.06531 0.448516 9.14431C0.863986 9.38256 1.30322 9.57182 1.75823 9.70865C4.11464 10.3915 6.76627 9.88924 8.53492 8.04103C9.92515 6.59069 10.4136 4.59012 10.4136 2.58672C10.4136 2.51054 10.5022 2.46539 10.5532 2.42589C10.9049 2.13776 11.215 1.79749 11.4737 1.41572C11.5185 1.35882 11.5415 1.28636 11.5381 1.21256C11.5381 1.17024 11.5381 1.1787 11.4871 1.20128Z" fill="#747DA4"/>
</svg>
